<mxfile host="app.diagrams.net" modified="2023-06-11T20:39:21.169Z" agent="Mozilla/5.0 (Macintosh; Intel Mac OS X 10_15_7) AppleWebKit/537.36 (KHTML, like Gecko) Chrome/113.0.0.0 Safari/537.36" version="21.3.8" etag="WKNOSAI3xDDjAs1kNizq" type="github">
  <diagram name="Seite-1" id="LkQd92QBY_13zHwyqzzI">
    <mxGraphModel>
      <root>
        <mxCell id="0" />
        <mxCell id="1" parent="0" />
      </root>
    </mxGraphModel>
  </diagram>
</mxfile>
